<svg xmlns="http://www.w3.org/2000/svg" viewBox="0 0 512 512"><path d="M502.489 104.1l-13.762 10.094-23.273 17.067-195.692 143.506A23.239 23.239 0 0 1 256 279.273a23.243 23.243 0 0 1-13.762-4.506L46.545 131.261l-23.273-17.067L9.511 104.1A23.268 23.268 0 0 1 0 85.394v341.273c0 12.853 10.42 23.273 23.273 23.273h465.454c12.853 0 23.273-10.42 23.273-23.273V85.394a23.268 23.268 0 0 1-9.511 18.706z" fill="#f6e27d"/><path d="M511.893 83.192c-.022-.231-.054-.462-.082-.694a23.232 23.232 0 0 0-.211-1.382c-.053-.284-.105-.568-.169-.85-.09-.4-.195-.794-.304-1.185-.082-.293-.157-.591-.251-.884-.011-.033-.019-.07-.029-.102-.15-.461-.326-.906-.503-1.351-.141-.355-.292-.7-.45-1.046a23.05 23.05 0 0 0-.591-1.227c-.127-.242-.268-.476-.405-.715a22.22 22.22 0 0 0-1.94-2.861c-.138-.175-.273-.354-.417-.524a23.006 23.006 0 0 0-1.218-1.339c-.056-.057-.105-.118-.164-.175a23.968 23.968 0 0 0-1.51-1.372c-.166-.14-.341-.268-.512-.402a23.04 23.04 0 0 0-1.106-.827c-.225-.158-.453-.307-.683-.458a22.984 22.984 0 0 0-1.057-.639c-.247-.143-.492-.289-.746-.42a22.877 22.877 0 0 0-1.221-.59c-.214-.098-.42-.205-.639-.295a22.718 22.718 0 0 0-1.832-.672c-.259-.084-.526-.15-.79-.225a24.11 24.11 0 0 0-1.257-.324 22.817 22.817 0 0 0-2.206-.375c-.24-.031-.481-.067-.725-.088a23.345 23.345 0 0 0-2.147-.107H23.273c-.726 0-1.443.042-2.152.109-.244.022-.483.057-.725.088-.464.056-.923.124-1.379.209-.278.051-.552.106-.827.166a24.11 24.11 0 0 0-1.257.324c-.264.074-.531.141-.79.225-.622.2-1.235.42-1.832.672-.219.092-.425.199-.639.295-.413.188-.822.379-1.221.59-.253.132-.498.278-.745.42-.358.205-.711.417-1.057.639-.23.15-.459.299-.683.458a23.21 23.21 0 0 0-1.106.827c-.171.133-.346.262-.512.402-.521.438-1.027.892-1.51 1.372-.057.057-.107.118-.163.175-.424.43-.83.878-1.218 1.339-.144.171-.279.349-.417.524a22.527 22.527 0 0 0-1.268 1.758c-.236.36-.455.729-.67 1.102-.137.239-.278.473-.405.715a22.3 22.3 0 0 0-.591 1.227c-.158.346-.309.69-.45 1.046-.177.445-.354.891-.503 1.351-.011.033-.019.07-.028.102-.095.293-.169.591-.251.884a22.1 22.1 0 0 0-.304 1.185c-.064.282-.116.566-.169.85-.084.456-.154.917-.211 1.382-.028.231-.061.462-.082.694A23.262 23.262 0 0 0 0 85.333v.061a23.271 23.271 0 0 0 9.511 18.707l13.762 10.094 23.273 17.067 195.693 143.506a23.239 23.239 0 0 0 13.762 4.506c4.833 0 9.666-1.503 13.762-4.506l195.693-143.506 23.273-17.067 13.762-10.094a23.27 23.27 0 0 0 9.511-18.707v-.061a24.411 24.411 0 0 0-.109-2.141z" fill="#f2d23d"/><path d="M9.511 104.1l13.762 10.094 23.273 17.067 195.693 143.506a23.239 23.239 0 0 0 13.762 4.506V449.94H23.273C10.42 449.939 0 439.519 0 426.667V85.394A23.268 23.268 0 0 0 9.511 104.1z" fill="#f5dc60"/><path d="M9.511 104.1l13.762 10.094 23.273 17.067 195.693 143.506a23.239 23.239 0 0 0 13.762 4.506V62.061H23.273c-.726 0-1.443.042-2.152.109-.244.022-.484.057-.725.088-.464.056-.923.124-1.379.209-.278.051-.552.106-.827.166a24.11 24.11 0 0 0-1.257.324c-.264.074-.531.141-.79.225-.622.2-1.235.42-1.832.672-.219.092-.425.199-.639.295-.413.188-.822.379-1.221.59-.253.132-.498.278-.746.42-.358.205-.711.416-1.057.639-.23.15-.459.299-.683.458a23.21 23.21 0 0 0-1.106.827c-.171.133-.346.262-.512.402-.521.438-1.027.892-1.51 1.372-.057.057-.107.118-.164.175-.424.43-.83.878-1.218 1.339-.144.171-.279.349-.417.524a22.527 22.527 0 0 0-1.268 1.758c-.233.36-.451.729-.667 1.102-.137.239-.278.473-.405.715a22.3 22.3 0 0 0-.591 1.227c-.158.346-.309.69-.45 1.046-.177.445-.354.891-.503 1.351-.011.033-.019.07-.028.102-.096.293-.169.591-.251.884a22.1 22.1 0 0 0-.304 1.185c-.064.282-.116.566-.169.85-.084.456-.154.917-.211 1.382-.028.231-.061.462-.082.694A22.991 22.991 0 0 0 0 85.333v.061A23.268 23.268 0 0 0 9.511 104.1z" fill="#eebf00"/></svg>