<svg xmlns="http://www.w3.org/2000/svg" width="512" height="512" viewBox="0 0 561.139 561.14"><g fill="#260"><path d="M29.273 166.042c-.091.32-28.424 92.823-28.434 92.861-3.074 10.021 2.558 20.636 12.58 23.711 10.017 3.069 20.626-2.554 23.706-12.57.009 0 28.367-92.46 28.367-92.46.167-.392 1.014-2.013 2.998-2.013h4.007c1.128-.02 1.788.942 1.492 2.027L17.21 363.379c-.306 1.08 0 2.974 1.975 2.974h39.828c1.128 0 1.951.913 1.951 2.042l-.009 135.399c0 13.518 10.958 24.476 24.475 24.476s24.471-10.958 24.471-24.476l.009-135.399a2.04 2.04 0 0 1 2.042-2.042h3.978c1.128 0 2.042.913 2.042 2.042l.01 135.399c0 13.518 10.958 24.476 24.475 24.476s24.476-10.958 24.476-24.476l-.01-135.399c0-1.129.827-2.042 1.951-2.042h39.828c1.975 0 2.286-1.894 1.975-2.974l-56.773-185.785c-.296-1.081.359-2.042 1.487-2.027h4.006c1.979 0 2.831 1.621 2.998 2.013 0 0 28.515 92.866 28.587 93.072.966 3.729 1.597 5.169 3.046 7.851l42.897 80.53c.545.942.99 2.592.99 3.682v142.524c.186 11.839 10.5 23.031 23.476 23.031 12.977 0 24.675-11.126 24.862-22.964l.01-59.68c0-1.091.885-1.975 1.975-1.975h2.96c1.09 0 1.975.884 1.975 1.975l.019 59.99c.187 11.838 9.62 22.658 22.597 22.658 12.254 0 22.328-10.275 23.566-21.392.12-1.085.191-141.85.191-141.85s.431-2.745.961-3.696c0 0 38.929-75.993 43.084-83.423.88-1.573 1.611-2.95 2.171-5.083.028-.1 15.572-94.171 15.572-94.171 0-1.09.885-1.975 1.975-1.975h4.021c1.09 0 1.975.885 1.975 1.975v325.139c0 13.517 10.958 24.476 24.475 24.476s24.476-10.959 24.476-24.476V312.491c0-1.396.646-1.976 2.022-1.976h3.944c1.377 0 2.022.584 2.022 1.976v191.307c0 13.517 10.959 24.476 24.476 24.476s24.476-10.959 24.476-24.476V178.659c0-1.09.884-1.975 1.975-1.975h4.021c1.09 0 1.975.885 1.975 1.975 0 0 .015 115.883.024 115.888.005 10.476 8.501 18.962 18.977 18.962 10.48 0 18.977-8.496 18.977-18.977V162.679c-.005-25.972-19.98-45.948-44.953-45.948H408.313c-24.973 0-44.949 19.976-44.949 45.948 0 1.306-10.562 75.027-13.903 98.336l-23.199 48.114c-1.1 1.902-2.348 2.648-4.681 2.648h-66.492c-1.09 0-2.415-.765-2.955-1.712 0 0-19.966-41.281-24.667-49.524-.115-.545-28.845-94.497-28.845-94.497-4.336-15.07-12.613-49.381-44.619-49.381h-80.01c-29.821-.006-40.383 34.309-44.72 49.379z"/><circle cx="462.239" cy="69.351" r="36.419"/><circle cx="113.94" cy="69.284" r="36.419"/><path d="M277.559 251.479c-8.382 4.432-14.095 13.229-14.095 23.371 0 14.592 11.829 26.421 26.42 26.421 14.593 0 26.426-11.829 26.426-26.421 0-9.022-4.522-16.983-11.427-21.75v-15.472l-7.124 11.996a26.885 26.885 0 0 0-2.376-.617v-11.379l-6.498 10.825a26.34 26.34 0 0 0-3.103.292v-11.121l-8.223 13.855z"/></g></svg>