<?xml version="1.0" encoding="iso-8859-1"?>
<!-- Generator: Adobe Illustrator 16.0.0, SVG Export Plug-In . SVG Version: 6.00 Build 0)  -->
<!DOCTYPE svg PUBLIC "-//W3C//DTD SVG 1.1//EN" "http://www.w3.org/Graphics/SVG/1.1/DTD/svg11.dtd">
<svg xmlns="http://www.w3.org/2000/svg" xmlns:xlink="http://www.w3.org/1999/xlink" version="1.1" id="Capa_1" x="0px" y="0px" width="512px" height="512px" viewBox="0 0 561.139 561.14" style="enable-background:new 0 0 561.139 561.14;" xml:space="preserve">
<g>
	<g>
		<path d="M29.273,166.042c-0.091,0.32-28.424,92.823-28.434,92.861c-3.074,10.021,2.558,20.636,12.58,23.711    c10.017,3.069,20.626-2.554,23.706-12.57c0.009,0,28.367-92.46,28.367-92.46c0.167-0.392,1.014-2.013,2.998-2.013    c0.182,0,3.997,0,3.997,0h0.01c1.128-0.02,1.788,0.942,1.492,2.027L17.21,363.379c-0.306,1.08,0,2.974,1.975,2.974h39.828    c1.128,0,1.951,0.913,1.951,2.042c0,0-0.009,135.353-0.009,135.399c0,13.518,10.958,24.476,24.475,24.476    s24.471-10.958,24.471-24.476l0.009-135.399c0-1.129,0.913-2.042,2.042-2.042h0.034h3.911h0.033c1.128,0,2.042,0.913,2.042,2.042    l0.01,135.399c0,13.518,10.958,24.476,24.475,24.476s24.476-10.958,24.476-24.476c0-0.047-0.01-135.399-0.01-135.399    c0-1.129,0.827-2.042,1.951-2.042h39.828c1.975,0,2.286-1.894,1.975-2.974l-56.773-185.785c-0.296-1.081,0.359-2.042,1.487-2.027    h0.009c0,0,3.815,0,3.997,0c1.979,0,2.831,1.621,2.998,2.013c0,0,28.515,92.866,28.587,93.072    c0.966,3.729,1.597,5.169,3.046,7.851l42.897,80.53c0.545,0.942,0.99,2.592,0.99,3.682v142.524    c0.186,11.839,10.5,23.031,23.476,23.031c12.977,0,24.675-11.126,24.862-22.964l0.01-59.68c0-1.091,0.885-1.975,1.975-1.975h2.96    c1.09,0,1.975,0.884,1.975,1.975l0.019,59.99c0.187,11.838,9.62,22.658,22.597,22.658c12.254,0,22.328-10.275,23.566-21.392    c0.12-1.085,0.191-141.85,0.191-141.85s0.431-2.745,0.961-3.696c0,0,38.929-75.993,43.084-83.423    c0.88-1.573,1.611-2.95,2.171-5.083c0.028-0.1,15.572-94.171,15.572-94.171c0-1.09,0.885-1.975,1.975-1.975h4.021    c1.09,0,1.975,0.885,1.975,1.975c0,0,0,325.101,0,325.139c0,13.517,10.958,24.476,24.475,24.476s24.476-10.959,24.476-24.476    c0-0.038,0-191.307,0-191.307c0-1.396,0.646-1.976,2.022-1.976h3.944c1.377,0,2.022,0.584,2.022,1.976c0,0,0,191.273,0,191.307    c0,13.517,10.959,24.476,24.476,24.476s24.476-10.959,24.476-24.476c0-0.038,0-325.139,0-325.139c0-1.09,0.884-1.975,1.975-1.975    h4.021c1.09,0,1.975,0.885,1.975,1.975c0,0,0.015,115.883,0.024,115.888c0.005,10.476,8.501,18.962,18.977,18.962    c10.48,0,18.977-8.496,18.977-18.977c0-0.058,0-130.303,0-131.853c-0.005-25.972-19.98-45.948-44.953-45.948    c-0.636,0-34.2,0-49.945,0c0,0-57.298,0-57.934,0c-24.973,0-44.949,19.976-44.949,45.948c0,1.306-10.562,75.027-13.903,98.336    l-23.199,48.114c-1.1,1.902-2.348,2.648-4.681,2.648h-66.492c-1.09,0-2.415-0.765-2.955-1.712c0,0-19.966-41.281-24.667-49.524    c-0.115-0.545-28.845-94.497-28.845-94.497c-4.336-15.07-12.613-49.381-44.619-49.381H73.993    C44.172,116.657,33.61,150.972,29.273,166.042z" fill="#226600"/>
		<circle cx="462.239" cy="69.351" r="36.419" fill="#226600"/>
		<circle cx="113.94" cy="69.284" r="36.419" fill="#226600"/>
		<path d="M277.559,251.479c-8.382,4.432-14.095,13.229-14.095,23.371c0,14.592,11.829,26.421,26.42,26.421    c14.593,0,26.426-11.829,26.426-26.421c0-9.022-4.522-16.983-11.427-21.75v-15.472l-7.124,11.996    c-0.779-0.244-1.573-0.444-2.376-0.617v-11.379l-6.498,10.825c-1.052,0.038-2.089,0.134-3.103,0.292v-11.121L277.559,251.479z" fill="#226600"/>
	</g>
</g>
<g>
</g>
<g>
</g>
<g>
</g>
<g>
</g>
<g>
</g>
<g>
</g>
<g>
</g>
<g>
</g>
<g>
</g>
<g>
</g>
<g>
</g>
<g>
</g>
<g>
</g>
<g>
</g>
<g>
</g>
</svg>
