<svg xmlns="http://www.w3.org/2000/svg" viewBox="0 0 512 512"><path d="M511.552 493.362l-64-256A15 15 0 0 0 433 226H79a15 15 0 0 0-14.552 11.362l-64 256A15.002 15.002 0 0 0 15 512h482a15 15 0 0 0 14.552-18.638z" fill="#e6edfe"/><path d="M447.552 237.362A15 15 0 0 0 433 226H256v286h241a15 15 0 0 0 14.552-18.638l-64-256z" fill="#d9e1f1"/><path fill="#87d92b" d="M477.79 482H34.21l8.14-32.57 44.97-179.89L90.71 256h330.58l3.39 13.54z"/><path fill="#7fcc29" d="M256 256v226h221.79l-53.11-212.46-3.39-13.54z"/><path fill="#fd9" d="M277.21 417l65.01 65h-42.44L256 438.22l-80-80.01L52.22 482H34.21l8.14-32.57L154.79 337l-67.47-67.46L90.71 256h25.51L256 395.79 395.78 256h25.51l3.39 13.54z"/><path d="M256 0c-61.21 0-111 49.79-111 111 0 33.05 14.4 63.84 39.63 85.01l58.01 113.8c2.56 5.03 7.72 8.19 13.36 8.19s10.8-3.16 13.36-8.19l58.01-113.8C352.6 174.84 367 144.05 367 111 367 49.79 317.21 0 256 0zm0 158c-25.92 0-47-21.08-47-47s21.08-47 47-47 47 21.08 47 47-21.08 47-47 47z" fill="#f23051"/><path d="M367 111c0 33.05-14.4 63.84-39.63 85.01l-58.01 113.8A14.984 14.984 0 0 1 256 318V158c25.92 0 47-21.08 47-47s-21.08-47-47-47V0c61.21 0 111 49.79 111 111z" fill="#d92c48"/><path fill="#ffd580" d="M277.21 417l65.01 65h-42.44L256 438.22v-42.43L395.78 256h25.51l3.39 13.54z"/></svg>