<?xml version="1.0" encoding="iso-8859-1"?>
<!-- Generator: Adobe Illustrator 19.0.0, SVG Export Plug-In . SVG Version: 6.00 Build 0)  -->
<svg version="1.1" id="Layer_1" xmlns="http://www.w3.org/2000/svg" xmlns:xlink="http://www.w3.org/1999/xlink" x="0px" y="0px"
	 viewBox="0 0 512 512" style="enable-background:new 0 0 512 512;" xml:space="preserve">
<path style="fill:#6E76E5;" d="M271.516,0c-12.853,0-23.273,10.42-23.273,23.273v23.158H147.395H23.274
	c-12.853,0-23.273,10.42-23.273,23.273v419.024C0.001,501.58,10.421,512,23.274,512h124.121h124.121
	c12.853,0,23.273-10.42,23.273-23.273V69.703V23.273C294.789,10.42,284.369,0,271.516,0z M178.425,418.909h-31.03h-31.03
	c-12.853,0-23.273-10.42-23.273-23.273s10.42-23.273,23.273-23.273h31.03h31.03c12.853,0,23.273,10.42,23.273,23.273
	S191.278,418.909,178.425,418.909z M248.243,279.158H147.395H46.546v-93.091h100.848h100.848V279.158z"/>
<path style="fill:#9BC9FF;" d="M406.319,398.775c-9.089,9.089-9.089,23.824,0,32.912c4.544,4.544,10.501,6.817,16.455,6.817
	c5.955,0,11.913-2.271,16.455-6.817c46.927-46.927,72.771-109.32,72.769-175.686c0-66.366-25.845-128.76-72.774-175.687
	c-9.087-9.089-23.824-9.089-32.912,0s-9.089,23.824,0,32.912C485.042,191.953,485.043,320.05,406.319,398.775z"/>
<path style="fill:#57A4FF;" d="M342.623,367.993c4.544,4.544,10.501,6.817,16.455,6.817s11.913-2.273,16.455-6.816
	c29.915-29.915,46.39-69.688,46.39-111.995s-16.476-82.08-46.39-111.995c-9.087-9.089-23.824-9.089-32.912,0s-9.089,23.824,0,32.912
	c21.124,21.124,32.757,49.209,32.757,79.082s-11.633,57.957-32.757,79.081C333.535,344.169,333.535,358.904,342.623,367.993z"/>
<path style="fill:#424EDE;" d="M116.364,418.909c-12.853,0-23.273-10.42-23.273-23.273s10.42-23.273,23.273-23.273h31.03v-93.206
	H46.546v-93.091h100.848V46.431H23.274c-12.853,0-23.273,10.42-23.273,23.273v419.024C0.001,501.58,10.421,512,23.274,512h124.121
	v-93.091H116.364z"/>
<g>
</g>
<g>
</g>
<g>
</g>
<g>
</g>
<g>
</g>
<g>
</g>
<g>
</g>
<g>
</g>
<g>
</g>
<g>
</g>
<g>
</g>
<g>
</g>
<g>
</g>
<g>
</g>
<g>
</g>
</svg>
