<svg xmlns="http://www.w3.org/2000/svg" viewBox="0 0 512 512"><path d="M271.516 0c-12.853 0-23.273 10.42-23.273 23.273v23.158H23.274C10.421 46.431.001 56.851.001 69.704v419.024C.001 501.58 10.421 512 23.274 512h248.242c12.853 0 23.273-10.42 23.273-23.273V23.273C294.789 10.42 284.369 0 271.516 0zm-93.091 418.909h-62.06c-12.853 0-23.273-10.42-23.273-23.273s10.42-23.273 23.273-23.273h62.06c12.853 0 23.273 10.42 23.273 23.273s-10.42 23.273-23.273 23.273zm69.818-139.751H46.546v-93.091h201.696v93.091z" fill="#6e76e5"/><path d="M406.319 398.775c-9.089 9.089-9.089 23.824 0 32.912a23.202 23.202 0 0 0 16.455 6.817 23.188 23.188 0 0 0 16.455-6.817c46.927-46.927 72.771-109.32 72.769-175.686 0-66.366-25.845-128.76-72.774-175.687-9.087-9.089-23.824-9.089-32.912 0s-9.089 23.824 0 32.912c78.73 78.727 78.731 206.824.007 285.549z" fill="#9bc9ff"/><path d="M342.623 367.993c4.544 4.544 10.501 6.817 16.455 6.817s11.913-2.273 16.455-6.816c29.915-29.915 46.39-69.688 46.39-111.995s-16.476-82.08-46.39-111.995c-9.087-9.089-23.824-9.089-32.912 0s-9.089 23.824 0 32.912c21.124 21.124 32.757 49.209 32.757 79.082s-11.633 57.957-32.757 79.081c-9.086 9.09-9.086 23.825.002 32.914z" fill="#57a4ff"/><path d="M116.364 418.909c-12.853 0-23.273-10.42-23.273-23.273s10.42-23.273 23.273-23.273h31.03v-93.206H46.546v-93.091h100.848V46.431H23.274C10.421 46.431.001 56.851.001 69.704v419.024C.001 501.58 10.421 512 23.274 512h124.121v-93.091h-31.031z" fill="#424ede"/></svg>