<svg xmlns="http://www.w3.org/2000/svg" viewBox="0 0 224.482 224.482" width="512" height="512"><g fill="#260"><path d="M112.24 0C50.351 0 0 50.351 0 112.24s50.351 112.241 112.24 112.241S224.482 174.13 224.482 112.24 174.13 0 112.24 0zm0 205.165c-51.238 0-92.924-41.686-92.924-92.925 0-51.238 41.686-92.924 92.924-92.924 51.239 0 92.925 41.686 92.925 92.924 0 51.24-41.686 92.925-92.925 92.925z"/><path d="M112.24 33.07c-43.654 0-79.17 35.516-79.17 79.17 0 43.655 35.516 79.171 79.17 79.171 43.655 0 79.171-35.516 79.171-79.171 0-43.654-35.515-79.17-79.171-79.17zm27.876 64.177l-.648 1.66h-19.72v-1.781c0-3.304-.63-5.742-1.811-7.247-1.116-1.418-2.621-2.079-4.491-2.079-1.876 0-3.146.518-3.971 1.585-.927 1.201-1.359 2.729-1.359 4.675 0 1.952.483 3.462 1.463 4.616 1.067 1.258 3.204 2.597 6.359 3.987 8.017 3.422 14.025 6.918 17.863 10.385 4.07 3.678 6.103 8.944 6.103 15.651 0 6.38-2.286 11.606-6.343 15.533-3.679 3.564-8.814 5.804-14.814 6.671v12.004h-11v-12.049c-7-.878-11.603-3.296-15.872-7.184-4.722-4.292-7.106-10.603-6.961-18.745l.048-.403.845-1.618h18.94v1.757c0 3.736 1.077 6.398 2.578 7.913 1.518 1.535 3.693 2.28 6.169 2.28 1.954 0 3.396-.513 4.325-1.566.984-1.117 1.478-2.587 1.478-4.49 0-2.253-.512-3.98-1.519-5.133-1.119-1.281-3.253-2.602-6.306-3.925-8.142-3.24-14.261-6.622-18.056-10.03-4.02-3.609-6.149-8.91-6.149-15.757 0-6.213 1.789-11.416 6.003-15.462 3.833-3.681 9.475-5.966 14.475-6.803V60.907h12v11.068c5 1.124 10.906 3.783 14.447 7.902 3.841 4.459 5.951 10.197 5.843 17.038l.081.332z"/></g></svg>