<svg xmlns="http://www.w3.org/2000/svg" viewBox="0 0 511.999 511.999"><path d="M248.434.021c-66.359 0-128.746 25.841-175.67 72.763C25.841 119.708-.002 182.094 0 248.452c0 12.851 10.419 23.269 23.27 23.269s23.27-10.419 23.27-23.27c0-53.926 20.999-104.624 59.133-142.755 38.132-38.132 88.833-59.133 142.761-59.133 12.851 0 23.27-10.419 23.27-23.27S261.285.021 248.434.021z" fill="#9bc9ff"/><path d="M248.434 90.085c-87.324 0-158.368 71.044-158.368 158.368 0 12.851 10.419 23.27 23.27 23.27s23.27-10.419 23.27-23.27c0-61.661 50.166-111.827 111.827-111.827 12.851 0 23.27-10.419 23.27-23.27s-10.418-23.271-23.269-23.271z" fill="#57a4ff"/><path d="M483.832 132.516c-.914-.917-63.601-63.599-63.601-63.599-9.086-9.088-23.821-9.088-32.909 0l-95.197 95.194a23.274 23.274 0 0 0 0 32.91l47.232 47.228-47.572 47.57-47.611 47.611-47.231-47.231c-9.086-9.086-23.821-9.086-32.909.002l-95.158 95.156c-9.088 9.088-9.088 23.824-.002 32.91 0 0 62.688 62.691 63.587 63.587 18.397 18.399 44.372 28.124 75.11 28.123 61.5-.002 138.912-39.212 202.035-102.331l.002-.002c45.186-45.185 78.39-97.454 93.497-147.178 16.633-54.74 9.785-100.895-19.273-129.95z" fill="#00e7f0"/><path d="M244.174 339.431L196.943 292.2c-9.086-9.086-23.821-9.085-32.909.002l-95.158 95.156c-9.088 9.088-9.088 23.824-.002 32.91 0 0 62.688 62.691 63.587 63.587 18.397 18.399 44.372 28.124 75.11 28.123 61.5-.002 138.912-39.212 202.035-102.331L291.783 291.822l-47.609 47.609z" fill="#00d7df"/></svg>