<svg xmlns="http://www.w3.org/2000/svg" width="512" height="512" viewBox="0 0 45 45"><path d="M23.441 11.877l-4.71-8.16a.822.822 0 0 0-.746-.405C9.688 3.746 0 5.609 0 9.43v26.024c0 4.095 11.318 6.233 22.5 6.233 11.18 0 22.5-2.141 22.5-6.233v-17.35c0-3.957-10.768-6.11-21.559-6.227zM1.626 9.43c0-1.5 5.539-3.857 15.947-4.466l5.237 9.072c-.104 0-.206.003-.311.003-12.742 0-20.873-2.729-20.873-4.609zm5.319 29.761c0 .042-.019.08-.052.104a.127.127 0 0 1-.118.024c-1.303-.344-2.416-.722-3.307-1.12a.136.136 0 0 1-.08-.126v-4.696a.11.11 0 0 1 .005-.038c.004-.014.342-1.137 1.774-1.137 1.431 0 1.77 1.123 1.773 1.139a.12.12 0 0 1 .005.036v5.814zm0-8.676a.13.13 0 0 1-.052.106.127.127 0 0 1-.083.027c-.012 0-.023-.002-.035-.004-1.303-.342-2.416-.719-3.307-1.119a.14.14 0 0 1-.08-.125v-4.699c0-.013.001-.022.005-.038.004-.011.342-1.136 1.774-1.136 1.431 0 1.77 1.125 1.773 1.139a.14.14 0 0 1 .005.035v5.814zm0-8.674a.134.134 0 0 1-.135.135.14.14 0 0 1-.035-.004c-1.303-.342-2.416-.719-3.307-1.121a.135.135 0 0 1-.08-.124v-4.7a.11.11 0 0 1 .005-.037c.004-.012.342-1.136 1.774-1.136 1.431 0 1.77 1.125 1.773 1.136a.144.144 0 0 1 .005.037v5.814zm5.778 18.43a.144.144 0 0 1-.046.104.138.138 0 0 1-.089.033h-.018a56.99 56.99 0 0 1-3.293-.524.138.138 0 0 1-.11-.134v-5.289c0-.013.001-.024.005-.038.004-.011.34-1.137 1.772-1.137s1.771 1.126 1.773 1.139a.142.142 0 0 1 .005.036l.001 5.81zm0-8.672a.14.14 0 0 1-.046.102.128.128 0 0 1-.089.033h-.018a54.52 54.52 0 0 1-3.293-.523.135.135 0 0 1-.11-.134v-5.288c0-.016.001-.025.005-.037.004-.011.34-1.137 1.772-1.137s1.771 1.126 1.773 1.139c.003.01.005.021.005.035l.001 5.81zm0-8.676c0 .04-.018.077-.046.102a.133.133 0 0 1-.089.033l-.018-.001a52.72 52.72 0 0 1-3.293-.525.135.135 0 0 1-.11-.133v-5.288c0-.013.001-.024.005-.037.004-.011.34-1.135 1.772-1.135s1.771 1.125 1.773 1.136a.15.15 0 0 1 .005.037l.001 5.811zm5.778 17.852a.148.148 0 0 1-.042.101.148.148 0 0 1-.093.035h-.006a77.809 77.809 0 0 1-3.292-.231.136.136 0 0 1-.124-.134v-4.998c0-.014.001-.026.005-.038.004-.01.341-1.136 1.771-1.136 1.434 0 1.773 1.126 1.776 1.138.003.01.005.022.005.036v5.227zm0-8.676a.151.151 0 0 1-.042.103.148.148 0 0 1-.093.035h-.006a79.561 79.561 0 0 1-3.292-.232.135.135 0 0 1-.124-.134v-5c0-.013.001-.023.005-.035.004-.015.341-1.137 1.771-1.137 1.434 0 1.773 1.122 1.776 1.139.003.01.005.021.005.033v5.228zm0-8.674a.138.138 0 0 1-.135.136h-.006a78.242 78.242 0 0 1-3.292-.23.136.136 0 0 1-.124-.136v-4.999c0-.012.001-.025.005-.037.004-.011.341-1.135 1.771-1.135 1.434 0 1.773 1.125 1.776 1.136a.157.157 0 0 1 .005.037v5.228zm5.776 17.43a.14.14 0 0 1-.134.137c-.545.011-1.09.021-1.646.021-.556 0-1.101-.011-1.646-.021a.138.138 0 0 1-.133-.137v-5.31c0-.014.001-.026.005-.038.003-.011.342-1.137 1.773-1.137 1.434 0 1.771 1.126 1.775 1.139a.18.18 0 0 1 .004.036l.002 5.31zm0-8.675c0 .075-.06.134-.134.136-.545.014-1.09.022-1.646.022-.556 0-1.101-.011-1.646-.022a.136.136 0 0 1-.133-.136v-5.31c0-.013.001-.023.005-.035.003-.015.342-1.137 1.773-1.137 1.434 0 1.771 1.122 1.775 1.139.002.01.004.021.004.033l.002 5.31zm0-8.674c0 .073-.06.134-.134.136-.545.01-1.09.021-1.646.021-.556 0-1.101-.011-1.646-.021a.137.137 0 0 1-.133-.136v-5.312c0-.012.001-.025.005-.037.003-.011.342-1.135 1.773-1.135 1.434 0 1.771 1.125 1.775 1.135a.245.245 0 0 1 .004.038l.002 5.311zm5.778 17.038a.138.138 0 0 1-.123.134 74.538 74.538 0 0 1-3.291.231h-.007a.146.146 0 0 1-.093-.038.135.135 0 0 1-.042-.098v-5.229c0-.014.002-.026.004-.038.004-.011.341-1.137 1.772-1.137s1.771 1.126 1.773 1.139c.002.01.005.022.005.036l.002 5zm0-8.674a.135.135 0 0 1-.123.134 76.153 76.153 0 0 1-3.291.232h-.007a.15.15 0 0 1-.093-.037.137.137 0 0 1-.042-.101V26.87c0-.013.002-.023.004-.035.004-.015.341-1.137 1.772-1.137s1.771 1.122 1.773 1.139c.002.01.005.021.005.033l.002 5zm5.778 7.88c0 .063-.047.12-.108.135-1.047.2-2.155.376-3.295.521-.005.004-.011.004-.018.004a.153.153 0 0 1-.089-.034.137.137 0 0 1-.05-.104V34.46c0-.013.002-.024.009-.038.003-.011.34-1.137 1.771-1.137 1.433 0 1.771 1.126 1.771 1.139a.109.109 0 0 1 .006.036l.003 5.29zm0-8.674a.14.14 0 0 1-.108.134 51.65 51.65 0 0 1-3.295.521c-.005.002-.011.002-.018.002a.14.14 0 0 1-.089-.033.131.131 0 0 1-.05-.102v-5.812a.07.07 0 0 1 .009-.038c.003-.011.34-1.137 1.771-1.137 1.433 0 1.771 1.126 1.771 1.14.004.01.006.021.006.035l.003 5.29zm5.778 7a.137.137 0 0 1-.08.126c-.894.398-2.006.776-3.308 1.121-.011.002-.022.004-.032.004a.144.144 0 0 1-.084-.029.128.128 0 0 1-.054-.104V33.38c0-.015.002-.026.004-.038.004-.014.343-1.136 1.771-1.136 1.437 0 1.771 1.122 1.776 1.138.004.01.006.021.006.036v4.696zm0-8.674a.14.14 0 0 1-.08.125c-.894.4-2.006.777-3.308 1.119-.011.002-.022.004-.032.004a.143.143 0 0 1-.084-.027.13.13 0 0 1-.054-.106v-5.813c0-.013.002-.022.004-.038.004-.011.343-1.136 1.771-1.136 1.437 0 1.771 1.125 1.776 1.139a.107.107 0 0 1 .006.035v4.698zm-12.082-6.983l-4.615-7.99-.523-.912c11.802.251 18.983 2.782 18.983 4.588 0 1.312-4.302 3.492-13.845 4.314z" fill="#260"/></svg>