<svg xmlns="http://www.w3.org/2000/svg" viewBox="0 0 512 512"><path d="M256.001 511.999c140.999 0 255.999-115 255.999-256C512 115.001 397 .001 256.001.001 115.001.001 0 115.001 0 255.999c0 141 115.001 256 256.001 256z" fill="#ffca4f"/><path d="M233.186 181.447H470.47c7.575 0 13.775 6.2 13.775 13.777v131.143c0 7.577-6.2 13.775-13.775 13.775H233.186c-7.577 0-13.777-6.198-13.777-13.775V195.224c0-7.577 6.2-13.777 13.777-13.777z" fill="#666"/><path d="M232.358 191.753h238.941v138.086H232.358V191.753z" fill="#fff"/><path d="M279.49 340.143h17.392v5.337H279.49v-5.337zm127.286 0h17.391v5.337h-17.391v-5.337z" fill="#666"/><path d="M383.157 233.056h-35.18l-2.851 29.648-5.059 4.062-10.676 6.796 23.824 56.279h24.702l23.827-56.279-10.676-6.796-5.063-4.059-2.848-29.651z" fill="#f0b97d"/><path d="M394.765 268.96l29.159 9.305-37.273 51.576h-38.44l-32.294-54.285 20.602-6.53 18.142 12.806h21.749l18.355-12.872z" fill="#ecf0f1"/><path d="M372.076 280.659l-2.494 6.147 3.404 43.035h-14.844l3.404-43.035-2.494-6.147 6.511-.262 6.513.262z" fill="#ff5b61"/><path d="M394.263 268.8l51.576 16.464s6.677 3.469 8.692 14.029c1.749 9.158 2.732 18.505 4.037 30.549h-84.812l20.507-61.042zm-121.702 61.041c1.305-12.046 2.289-21.391 4.041-30.549 2.013-10.56 8.69-14.029 8.69-14.029l51.226-16.237 20.738 60.815h-84.695z" fill="#15bdb1"/><path d="M394.263 268.8l11.126 3.552 2.138 28.228s-.591 2.321-2.358 2.111l-10.039 3.775s-.656.658-.07 1.489l8.593 5.888-8.488 15.999h-21.41l20.508-61.042zm-58.295 61.041l-8.489-15.999 8.592-5.888a1.149 1.149 0 0 0-.07-1.489l-10.039-3.775c-1.767.21-2.355-2.111-2.355-2.111l2.13-28.137 10.782-3.416 20.738 60.815h-21.289z" fill="#20d0c2"/><path d="M406.537 172.759c0 2.755 1.005 5.452.931 8.096 9.426-1.748 4.875 26.253-.461 30.103-.421.307-1.466-.377-2.345-.937-1.849 10.297-17.639 37.82-27.681 49.403-2.789 3.216-19.84 3.161-22.599.121-10.282-11.318-26.055-39.168-27.915-49.524-.879.56-1.923 1.244-2.346.937-5.333-3.85-9.887-31.851-.457-30.103-.077-2.644.929-5.341.929-8.096.523-21.745 20.225-32.601 40.972-32.694 20.747.094 40.451 10.949 40.972 32.694z" fill="#fed198"/><path d="M393.904 144.884c2.973-.345 13.711 2.945 15 14.306 1.291 11.363.676 21.833.676 21.833s-6.293 1.588-7.085 8.036c-.791 6.45-.226 6.45-.226 6.45l-2.28-.513-1.622-11.056c-9.414-5.897.072-14.635-9.345-16.68-25.426 18.122-47.861 15.02-57.977 6.495 0 0 2.361 8.916.541 12.096-1.822 3.179-.734 8.19-.734 8.19l-2.366-.113s.428-13.133-4.82-13.074c-19.95-32.935 43.199-73.845 70.238-35.97z" fill="#666"/><path d="M386.248 258.471c-.737.052 8.611 10.597 8.611 10.597l-7.956 27.249-21.337-15.92c11.736-5.758 18.739-13.217 20.682-21.926zm-41.368 0c.737.052-8.61 10.597-8.61 10.597l7.959 27.249 21.337-15.92c-11.737-5.758-18.742-13.217-20.686-21.926z" fill="#fff"/><path d="M411.542 186.679c4.462-22.264-4.165-37.821-17.711-46.447-8.389-5.343-18.668-8.067-28.914-8.112-10.236-.047-20.424 2.578-28.648 7.931-13.036 8.487-21.137 23.944-16.593 46.629l-3.467.691c-4.882-24.355 3.961-41.045 18.142-50.275 8.809-5.735 19.683-8.547 30.58-8.498 10.887.048 21.83 2.956 30.791 8.664 14.705 9.362 24.087 26.162 19.288 50.109l-3.468-.692z" fill="#ff757c"/><path d="M319.711 182.686a3.947 3.947 0 0 0-3.453 4.37l3.066 26.139a3.949 3.949 0 0 0 4.37 3.453 3.949 3.949 0 0 0 3.453-4.371l-3.066-26.139a3.948 3.948 0 0 0-4.37-3.452z" fill="#807d7d"/><path d="M312.45 187.578l3.817-.447 2.994 25.526-3.844.453a3.825 3.825 0 0 1-4.234-3.346l-2.103-17.919a3.856 3.856 0 0 1 3.37-4.267z" fill="#ff757c"/><path d="M411.419 182.686a3.944 3.944 0 0 1 3.451 4.37l-3.065 26.139a3.949 3.949 0 0 1-4.371 3.453 3.946 3.946 0 0 1-3.451-4.371l3.066-26.139a3.949 3.949 0 0 1 4.37-3.452z" fill="#807d7d"/><g fill="#ff757c"><path d="M418.682 187.578l-3.819-.447-2.994 25.526 3.845.453a3.826 3.826 0 0 0 4.234-3.346l2.102-17.919a3.855 3.855 0 0 0-3.368-4.267z"/><path d="M413.43 210.495c-2.509 11.106-9.154 19.441-17.806 24.951-6.424 4.091-13.954 6.646-21.73 7.641v3.548c8.435-1.017 16.633-3.766 23.624-8.217 9.639-6.138 16.991-15.473 19.56-27.922l-3.648-.001z"/></g><path d="M363.827 239.836h12.006c.858 0 1.561.7 1.561 1.559v6.238c0 .857-.702 1.559-1.561 1.559h-12.006a1.563 1.563 0 0 1-1.559-1.559v-6.238c0-.858.7-1.559 1.559-1.559z" fill="#666"/><path d="M216.321 345.478h288.3v9.747c0 5.361-4.861 9.745-10.805 9.745H227.125c-5.943 0-10.804-4.384-10.804-9.745v-9.747z" fill="#807d7d"/><path d="M217.25 359.17h286.442c-1.689 3.41-5.488 5.801-9.876 5.801H227.125c-4.387-.001-8.186-2.391-9.875-5.801z" fill="#666"/><path d="M97.14 137.069c0 5.104-1.861 34.618-1.721 39.514-17.463-3.238-5.522 48.636 4.351 55.754.772.56 2.716-.698 4.346-1.734 2.593 14.449 16.506 33.135 32.88 50.675l-6.817 57.161 42.876-2.593 42.877 2.593-6.801-57.029c16.481-17.422 30.21-36.35 32.806-50.806 1.631 1.036 3.569 2.294 4.344 1.734 9.876-7.117 21.813-58.992 4.353-55.754.138-4.896-1.723-34.41-1.723-39.514-.965-40.272-37.458-60.379-75.886-60.55-38.424.17-74.918 20.277-75.885 60.549z" fill="#fed198"/><path d="M118.946 324.789L64.94 342.028l108.084 149.561 91.96-154.581-38.159-12.094-33.6 23.72h-40.283l-33.996-23.845z" fill="#ccc"/><path d="M160.968 346.458l4.616 11.39-10.261 129.79 10.425 7.979a258.032 258.032 0 0 0 9.96 3.52l15.023-11.499-10.261-129.79 4.616-11.39-12.06-.48-12.058.48z" fill="#0e5e9a"/><path d="M119.872 324.497l-95.524 30.488s-1.418.739-3.437 2.472C60.199 448.369 150.662 511.998 256 511.998c35.187 0 68.714-7.106 99.231-19.948-7.077-47.26-15.306-99.956-17.43-111.081-3.655-19.142-16.099-25.984-16.099-25.984l-94.875-30.071c-36.033-17.273-71.712-18.686-106.955-.417z" fill="#ff757c"/><path d="M137.038 291.55c-13.009 6.125-11.997 12.409-11.997 12.409l-1.469 18.968c30.903-15.357 68.001-15.359 98.908 0l-1.469-18.968s.666-5.598-11.995-12.409c-17.892-9.625-50.808-9.971-71.978 0z" fill="#fff"/><path d="M120.086 88.282c-18.869 13.757-42.202 31.104-33.732 57.991l17.156 54.484c7.793 24.751 8.944 69.774 45.455 69.318l24.104-.302 24.104.302c36.511.456 37.662-44.563 45.456-69.318l17.157-54.484c8.467-26.89-14.869-44.234-33.735-57.991-21.514-15.682-84.449-15.684-105.965 0z" fill="#666"/><path d="M90.355 174.352h-.001c-3.885.62-6.555 4.305-5.936 8.186l7.525 47.202c.62 3.882 4.305 6.554 8.19 5.934h.001c3.884-.619 6.555-4.303 5.936-8.186l-7.526-47.2c-.621-3.884-4.305-6.556-8.189-5.936z" fill="#807d7d"/><path d="M77.545 183.776l6.893-1.099 7.35 46.093-6.939 1.106c-3.765.6-7.337-1.988-7.937-5.752l-5.159-32.357c-.605-3.791 2.003-7.386 5.792-7.991z" fill="#20d0c2"/><path d="M257.655 174.352h.001c3.885.62 6.557 4.305 5.937 8.186l-7.526 47.202c-.618 3.882-4.303 6.554-8.188 5.934h-.002c-3.883-.619-6.554-4.303-5.935-8.186l7.526-47.2c.618-3.884 4.303-6.556 8.187-5.936z" fill="#807d7d"/><g fill="#20d0c2"><path d="M270.464 183.776l-6.893-1.099-7.35 46.093 6.942 1.106c3.765.6 7.337-1.988 7.937-5.752l5.159-32.357c.605-3.791-2.003-7.386-5.795-7.991z"/><path d="M264.129 182.651c8.755-43.687-8.185-74.221-34.784-91.156-16.455-10.477-36.604-15.818-56.69-15.91-20.069-.091-40.045 5.06-56.176 15.559-25.599 16.663-41.517 47.003-32.598 91.507l-5.777 1.152c-9.477-47.289 7.667-79.68 35.176-97.586 17.107-11.136 38.224-16.598 59.4-16.5 21.154.096 42.413 5.746 59.818 16.827 28.528 18.164 46.727 50.768 37.41 97.26l-5.779-1.153z"/></g></svg>